<svg viewBox="0 0 64 64" xmlns="http://www.w3.org/2000/svg" shape-rendering="crispEdges">
  <title>Arcane Library</title>
  <defs>
    <clipPath id="panel"><rect x="0" y="0" width="64" height="64" rx="10" ry="10"/></clipPath>
  </defs>
  <g clip-path="url(#panel)">
    <rect x="0" y="0" width="64" height="64" fill="#150f2a"/>
    <g fill="#b3a8d6">
      <rect x="4" y="12" width="24" height="4"/>
      <rect x="36" y="12" width="24" height="4"/>
      <rect x="4" y="16" width="56" height="4"/>
      <rect x="0" y="20" width="64" height="4"/>
      <rect x="0" y="24" width="64" height="4"/>
      <rect x="0" y="28" width="16" height="4"/>
      <rect x="24" y="28" width="16" height="4"/>
      <rect x="48" y="28" width="16" height="4"/>
      <rect x="0" y="32" width="16" height="4"/>
      <rect x="24" y="32" width="16" height="4"/>
      <rect x="48" y="32" width="16" height="4"/>
      <rect x="4" y="36" width="56" height="4"/>
      <rect x="4" y="40" width="56" height="4"/>
      <rect x="8" y="44" width="48" height="4"/>
      <rect x="8" y="48" width="48" height="4"/>
      <rect x="16" y="56" width="32" height="4"/>
    </g>
    <g fill="#d9a441">
      <rect x="12" y="4" width="4" height="4"/>
      <rect x="48" y="4" width="4" height="4"/>
      <rect x="8" y="8" width="12" height="4"/>
      <rect x="44" y="8" width="12" height="4"/>
      <rect x="12" y="52" width="40" height="4"/>
    </g>
    <g fill="#8fc4ff">
      <rect x="16" y="28" width="8" height="4"/>
      <rect x="40" y="28" width="8" height="4"/>
      <rect x="16" y="32" width="8" height="4"/>
      <rect x="40" y="32" width="8" height="4"/>
    </g>
  </g>
</svg>
